<svg width="744" height="747" viewBox="0 0 744 747" fill="none" xmlns="http://www.w3.org/2000/svg">
<path d="M66.4014 398.155C101.887 398.072 137.372 397.984 172.857 397.91C183.486 397.888 194.115 397.907 204.872 397.907C212.571 443.64 234.316 480.698 271.092 508.414C301.336 531.206 335.716 542.12 373.617 541.983C450.565 541.705 525.145 485.439 539.041 397.996C594.261 397.996 649.54 397.996 705.179 398.584C705.161 404.619 704.822 410.069 704.398 415.512C702.698 437.312 698.822 458.714 692.968 479.789C684.683 509.617 673.871 538.481 658.893 565.575C650.337 581.052 640.371 595.749 631.132 610.853C630.222 612.34 629.956 614.22 629.247 616.244C628.861 617.716 628.619 618.863 628.218 620.302C625.541 623.031 623.022 625.468 620.133 627.899C617.974 628.902 616.184 629.911 614.039 630.924C612.921 631.592 612.157 632.257 611.392 632.92C611.392 632.92 611.393 632.921 611.016 632.925C608.556 634.925 606.472 636.92 604.143 638.921C603.897 638.926 603.406 638.932 603.029 638.932C597.238 641.757 591.939 644.831 586.392 647.362C566.937 656.24 547.656 665.583 527.807 673.49C511.702 679.906 495.147 685.666 478.299 689.616C459.7 693.975 440.601 696.43 421.606 698.797C405.212 700.839 388.674 701.904 372.168 702.786C364.09 703.218 355.925 702.43 347.821 701.878C334.785 700.99 321.68 700.452 308.765 698.628C296.196 696.854 283.84 693.594 271.37 691.085C244.347 685.645 219.083 675.137 194.003 664.153C184.891 660.162 176.318 654.788 166.989 651.481C153.439 646.678 143.077 637.485 135.337 626.579C126.196 613.699 119.119 599.131 112.678 584.615C104.832 566.934 97.8745 548.778 91.8351 530.4C85.5397 511.243 80.2944 491.697 75.5674 472.086C72.9115 461.066 72.3288 449.556 70.6367 438.294C68.6352 424.972 66.2384 411.701 66.4014 398.155Z" fill="#F0F0F0"/>
<path d="M703.386 348.829C674.89 348.871 646.394 348.936 617.899 348.949C593.399 348.961 568.9 348.915 544.401 348.895C542.746 348.894 541.091 348.895 539.015 348.895C530.297 298.614 505.167 258.93 462.388 231.156C431.529 211.121 397.266 202.994 360.625 205.064C294.057 208.825 219.465 258.665 204.623 348.776C159.906 348.776 115.117 348.776 69.849 348.309C69.0674 345.392 68.2969 342.894 68.5382 340.499C70.0263 325.724 71.5873 310.952 73.4404 296.219C74.5695 287.242 76.1222 278.311 77.7627 269.41C78.6816 264.425 79.7605 259.396 81.4867 254.648C84.6553 245.933 83.3388 236.343 87.7199 227.76C91.1487 221.042 93.3672 213.607 95.37 206.284C98.37 195.316 100.376 184.023 108.913 175.526C109.221 175.22 109.228 174.602 109.352 174.123C113.072 159.757 120.828 147.216 127.054 133.951C132.275 122.828 142.124 116.53 149.909 108.102C152.093 105.738 155.245 104.139 158.176 102.623C163.421 99.9093 168.829 97.509 174.183 95.0084C178.074 93.1914 182.01 91.4705 185.886 89.6249C195.96 84.8292 205.651 78.9085 216.15 75.3963C236.326 68.6469 256.218 61.0969 277.491 57.4583C290.748 55.1908 303.919 51.4305 317.333 50.1547C336.362 48.3449 355.514 47.4272 374.631 47.0911C387.853 46.8587 401.114 48.0905 414.337 48.9835C421.4 49.4605 428.469 50.3145 435.443 51.5253C443.846 52.9839 452.149 55.0115 460.502 56.7587C461.133 56.8905 461.828 56.6784 462.479 56.7496C465.333 57.0613 468.211 57.264 471.023 57.8031C473.764 58.3284 476.433 59.2258 479.138 59.9402C485.031 61.496 490.939 62.9925 496.814 64.6103C499.201 65.2675 501.524 66.1598 503.866 66.9754C514.527 70.6886 525.52 73.6687 535.765 78.3028C552.115 85.6982 568.222 93.7309 583.94 102.385C595.081 108.519 605.407 116.131 616.108 123.066C620.186 125.709 624.294 128.304 628.389 130.919C628.389 130.919 628.388 130.921 628.393 131.286C630.062 133.408 631.726 135.163 633.511 137.202C634.218 138.296 634.804 139.107 635.426 140.273C636.497 142.508 637.481 144.419 638.578 146.264C643.592 154.697 649.272 162.804 653.537 171.599C661.68 188.386 669.718 205.29 676.505 222.652C683.361 240.188 689.216 258.174 694.396 276.282C697.267 286.317 698.172 296.968 699.399 307.408C701.018 321.181 702.083 335.019 703.386 348.829Z" fill="#AF2B2C"/>
<path d="M428.131 479.764C373.263 508.326 307.651 491.307 272.942 441.834C238.076 392.137 246.881 321.757 293.436 282.23C346.688 237.018 425.957 245.379 467.665 300.606C511.145 358.179 495.203 439.674 433.195 476.813C431.625 477.753 430.039 478.668 428.131 479.764Z" fill="#EFEFEF"/>
<path d="M620.502 627.905C623.021 625.468 625.54 623.031 628.512 620.132C635.112 612.748 641.416 605.956 647.345 598.851C650.69 594.844 653.417 590.322 656.759 585.955C668.943 570.696 678.961 554.397 687.902 537.33C702.618 509.24 713.311 479.753 719.896 448.788C723.44 432.123 726.666 415.37 726.436 398.195C732.071 398.195 737.707 398.195 743.345 398.195C738.284 555.871 605.783 733.417 393.331 745.54C173.926 758.06 9.71822 585.653 0.0732422 398.045C5.52855 398.045 10.9744 398.045 16.8673 398.575C18.6474 410.942 19.5892 422.838 21.3885 434.603C26.3695 467.172 36.3018 498.342 51.0577 527.699C60.209 545.906 71.3661 563.117 81.9139 580.599C84.0457 584.132 87.4853 586.877 90.358 590.298C90.7418 591.375 91.0895 592.141 91.5561 593.19C92.573 594.3 93.4712 595.126 94.4884 596.214C95.179 596.969 95.7506 597.462 96.3752 598.299C102.359 605.511 107.79 612.904 114.327 619.137C127.511 631.707 141.038 643.951 154.946 655.713C161.436 661.201 169.143 665.25 176.467 670.247C178.562 671.687 180.487 672.832 182.722 673.979C183.446 673.976 183.859 673.971 184.292 674.332C185.098 675.658 185.702 676.913 186.7 677.524C190.24 679.688 193.81 681.854 197.556 683.624C215.395 692.055 232.918 701.337 251.291 708.399C266.52 714.253 282.591 718.363 298.626 721.549C316.106 725.022 333.913 727.524 351.69 728.624C368.226 729.647 384.988 729.146 401.51 727.707C418.764 726.205 435.993 723.48 452.974 720.02C474.289 715.678 494.852 708.513 514.73 699.635C536.77 689.793 557.879 678.247 577.691 663.781C586.147 657.092 594.284 650.524 602.766 643.915C608.908 638.551 614.705 633.228 620.502 627.905Z" fill="#EDEEEE"/>
<path d="M16.3423 348.654C10.898 348.654 5.45369 348.654 0 348.654C9.73134 163.081 171.148 -9.84594 391.524 1.03552C591.567 10.913 735.328 174.899 743.68 348.956C738.223 348.956 732.78 348.956 726.872 348.424C726.842 329.031 722.915 310.679 718.901 292.486C713.243 266.836 704.488 242.068 692.571 218.63C685.067 203.87 676.462 189.655 667.968 175.424C665.441 171.19 661.62 167.728 658.391 163.915C658.391 163.918 658.396 163.916 658.36 163.564C657.013 161.778 655.702 160.344 654.391 158.527C653.474 156.319 652.857 154.247 651.59 152.71C646.155 146.117 640.823 139.398 634.881 133.281C630.147 128.408 624.585 124.34 619.391 119.916C619.391 119.916 619.393 119.918 619.389 119.553C615.056 114.764 610.728 110.34 606.253 105.616C601.967 101.783 598.026 97.9803 593.646 94.7776C585.701 88.9674 577.494 83.5143 569.242 77.61C549.679 63.8505 528.832 53.0533 507.075 43.9839C484.061 34.3907 460.158 27.6308 435.66 23.3053C421.21 20.754 406.529 18.5324 391.905 18.195C372.204 17.7404 352.423 18.7434 332.743 20.0885C320.268 20.9412 307.757 22.8445 295.534 25.5171C264.337 32.338 234.183 42.6007 206.293 58.2222C188.433 68.2259 171.509 79.9609 154.552 91.4879C147.635 96.1898 141.74 102.395 135.06 107.942C133.958 108.619 133.176 109.27 132.094 110.066C119.908 122.728 107.441 134.752 96.2801 147.887C82.3198 164.316 70.6323 182.425 60.0707 201.293C46.9506 224.731 36.8977 249.4 29.458 275.107C22.5081 299.122 18.4062 323.726 16.3423 348.654Z" fill="#AD2B2C"/>
<path d="M628.388 130.92C624.294 128.303 620.186 125.709 616.108 123.066C605.407 116.131 595.081 108.519 583.94 102.385C568.222 93.7309 552.115 85.6982 535.765 78.3028C525.52 73.6687 514.527 70.6886 503.866 66.9754C501.524 66.1598 499.201 65.2675 496.814 64.6103C490.939 62.9925 485.031 61.496 479.138 59.9402C476.433 59.2258 473.764 58.3284 471.023 57.8031C468.211 57.264 465.333 57.0613 462.479 56.7496C461.828 56.6784 461.133 56.8905 460.502 56.7587C452.149 55.0115 443.846 52.9839 435.443 51.5253C428.469 50.3145 421.4 49.4605 414.337 48.9835C401.114 48.0905 387.853 46.8587 374.631 47.0911C355.514 47.4272 336.362 48.3449 317.333 50.1547C303.919 51.4305 290.748 55.1908 277.491 57.4583C256.218 61.0969 236.326 68.6469 216.15 75.3963C205.651 78.9085 195.96 84.8292 185.886 89.6249C182.01 91.4705 178.074 93.1914 174.183 95.0084C168.829 97.509 163.421 99.9093 158.176 102.623C155.245 104.139 152.093 105.738 149.909 108.102C142.124 116.53 132.275 122.828 127.054 133.951C120.828 147.216 113.072 159.757 109.352 174.123C109.228 174.602 109.221 175.22 108.913 175.526C100.376 184.023 98.37 195.316 95.37 206.284C93.3672 213.607 91.1487 221.042 87.7199 227.76C83.3388 236.343 84.6553 245.933 81.4867 254.648C79.7605 259.396 78.6816 264.425 77.7627 269.41C76.1222 278.311 74.5695 287.242 73.4404 296.219C71.5873 310.952 70.0263 325.724 68.5382 340.499C68.2969 342.894 69.0673 345.391 69.3876 348.231C63.7129 348.672 58.0208 348.724 51.863 348.259C51.7284 342.455 51.8679 337.147 52.431 331.884C53.5722 321.217 54.556 310.51 56.3139 299.938C58.6693 285.771 61.4561 271.664 64.5269 257.634C66.3556 249.279 68.6045 240.946 71.5192 232.914C76.0452 220.442 81.0821 208.14 86.3077 195.94C91.4521 183.929 96.3353 171.703 102.726 160.356C110.405 146.721 117.743 132.668 129.159 121.478C129.457 121.186 128.675 119.794 128.395 118.666C128.395 118.418 128.395 117.921 128.614 117.813C129.105 117.505 129.292 117.245 129.726 116.922C130.503 116.921 130.947 116.92 131.756 116.915C133.21 115.913 134.301 114.916 135.499 113.7C135.807 113.207 136.068 113.02 136.757 112.915C141.874 109.713 146.533 106.368 151.394 103.348C164.295 95.3301 176.77 86.3934 190.371 79.7922C206.715 71.8592 223.945 65.6866 240.991 59.2844C251.519 55.3302 262.275 51.768 273.194 49.1243C284.883 46.2941 296.852 44.5526 308.755 42.6982C320.496 40.8693 332.281 38.4019 344.091 38.1246C379.247 37.2992 414.32 37.5035 449.117 44.7305C483.703 51.9136 517.45 61.2603 548.773 77.7818C566.365 87.0604 583.283 97.6164 600.497 107.611C603.482 109.344 606.427 111.146 609.641 112.917C610.057 112.918 610.224 112.919 610.43 113.275C611.777 114.394 613.084 115.157 614.66 116.11C616.417 117.506 617.905 118.712 619.393 119.919C619.393 119.919 619.391 119.918 619.424 120.262C622.434 124.044 625.411 127.482 628.388 130.92Z" fill="#A92A2B"/>
<path d="M128.396 118.914C128.674 119.793 129.457 121.186 129.159 121.478C117.743 132.668 110.405 146.721 102.726 160.356C96.3353 171.703 91.4521 183.929 86.3077 195.94C81.0821 208.14 76.0452 220.442 71.5192 232.914C68.6045 240.946 66.3556 249.279 64.5269 257.634C61.4561 271.664 58.6693 285.771 56.3139 299.938C54.556 310.51 53.5722 321.217 52.431 331.884C51.8679 337.147 51.7281 342.455 51.402 348.182C48.0408 348.673 44.6745 348.724 40.8502 348.297C37.0991 336.659 41.3017 325.759 41.9006 314.766C42.4345 304.966 45.2833 295.262 47.4243 285.585C50.1728 273.162 52.0868 260.39 56.4201 248.521C63.6648 228.676 69.8915 208.345 81.0439 190.04C86.6223 180.883 90.6229 170.78 95.8215 161.373C98.9975 155.625 103.22 150.466 106.733 144.892C109.164 141.034 111.186 136.919 113.535 132.619C116.583 129.519 119.487 126.718 122.731 123.884C123.844 122.872 124.618 121.895 125.499 120.699C125.807 120.207 126.068 120.02 126.689 119.897C127.457 119.556 127.927 119.235 128.396 118.914Z" fill="#A32829"/>
<path d="M122.39 123.918C119.487 126.719 116.584 129.52 113.235 132.765C108.498 137.815 103.375 141.896 100.066 147.124C89.4406 163.916 78.7464 180.743 69.5042 198.306C62.0579 212.457 56.498 227.622 50.4502 242.479C46.8514 251.319 43.5923 260.333 40.8125 269.461C38.8108 276.035 37.7234 282.902 36.4529 289.68C32.7994 309.171 30.287 328.806 29.4036 348.633C25.3582 348.691 21.3129 348.749 16.8047 348.731C18.4058 323.727 22.5081 299.122 29.458 275.107C36.8977 249.4 46.9506 224.731 60.0707 201.293C70.6323 182.425 82.3198 164.316 96.2801 147.887C107.441 134.752 119.907 122.728 132.337 110.255C131.718 112.507 130.555 114.715 129.393 116.923C129.292 117.245 129.105 117.506 128.292 117.853C127.298 118.641 126.845 119.28 126.391 119.919C126.068 120.02 125.807 120.207 125.159 120.734C123.937 121.964 123.164 122.941 122.39 123.918Z" fill="#972627"/>
<path d="M29.8555 348.709C30.2867 328.806 32.7994 309.171 36.4529 289.68C37.7234 282.902 38.8108 276.035 40.8125 269.461C43.5923 260.333 46.8514 251.319 50.4502 242.479C56.498 227.622 62.0579 212.457 69.5042 198.306C78.7464 180.743 89.4406 163.916 100.066 147.124C103.375 141.896 108.497 137.815 113.09 133.063C111.186 136.919 109.164 141.034 106.733 144.892C103.22 150.466 98.9975 155.625 95.8215 161.373C90.6229 170.78 86.6223 180.883 81.0439 190.04C69.8915 208.345 63.6648 228.676 56.4201 248.521C52.0868 260.39 50.1728 273.162 47.4243 285.585C45.2833 295.262 42.4345 304.966 41.9006 314.766C41.3017 325.759 37.0989 336.66 40.3987 348.222C37.0395 348.679 33.6735 348.733 29.8555 348.709Z" fill="#9E2728"/>
<path d="M654.033 585.959C654.881 585.347 655.391 584.787 656.146 584.072C656.394 584.387 656.398 584.855 656.412 585.678C653.418 590.322 650.69 594.844 647.345 598.851C641.416 605.956 635.113 612.747 628.671 619.84C628.619 618.863 628.861 617.716 629.247 616.244C635.854 607.987 642.32 600.057 648.779 592.122C650.429 590.095 652.057 588.049 654.033 585.959Z" fill="#D8D8D8"/>
<path d="M602.395 640.92C602.66 640.429 602.925 639.938 603.297 639.189C603.406 638.931 603.897 638.925 604.503 638.915C607.204 636.91 609.298 634.915 611.392 632.92C611.392 632.92 611.39 632.918 611.713 632.895C612.821 632.221 613.607 631.571 614.393 630.92C616.183 629.911 617.974 628.902 620.133 627.899C614.706 633.228 608.908 638.551 602.755 643.901C602.399 643.929 602.378 643.906 602.379 643.533C602.385 642.413 602.39 641.667 602.395 640.92Z" fill="#D8D8D8"/>
<path d="M611.016 632.925C609.299 634.916 607.204 636.91 604.749 638.911C606.471 636.92 608.556 634.925 611.016 632.925Z" fill="#E8E8E8"/>
<path d="M614.039 630.924C613.608 631.571 612.822 632.221 611.715 632.896C612.157 632.256 612.921 631.592 614.039 630.924Z" fill="#E8E8E8"/>
<path d="M628.393 131.286C630.034 132.694 631.679 134.467 633.358 136.579C631.726 135.163 630.062 133.408 628.393 131.286Z" fill="#A92A2B"/>
<path d="M97.4002 597.918C98.1873 598.235 98.9745 598.551 100.081 598.889C100.401 598.911 100.896 598.914 101.148 599.287C103.064 601.745 104.727 603.832 106.39 605.918C114.019 616.924 123.401 626.256 134.099 634.764C134.504 635.229 134.692 635.49 135.321 636.089C136.581 636.966 137.486 637.442 138.392 637.918C138.496 638.239 138.684 638.499 139.32 639.11C142.267 641.833 144.713 644.329 147.468 646.417C152.683 650.371 158.076 654.091 163.744 657.913C165.194 658.582 166.296 659.247 167.432 660.266C170.109 662.385 172.751 664.15 175.598 666.178C176.663 666.602 177.524 666.763 178.387 667.298C178.39 668.42 178.392 669.168 178.045 669.918C177.23 669.93 176.764 669.941 176.298 669.951C169.143 665.25 161.436 661.201 154.946 655.713C141.038 643.951 127.511 631.707 114.327 619.137C107.79 612.904 102.36 605.511 96.6455 598.286C97.0415 597.925 97.2209 597.922 97.4002 597.918Z" fill="#D4D4D4"/>
<path d="M577.691 663.781C576.289 663.577 575.207 663.251 573.864 662.665C573.864 661.908 574.125 661.412 574.645 660.809C575.398 660.439 575.892 660.175 576.756 659.909C578.881 658.577 580.636 657.248 582.393 655.587C582.399 654.813 582.402 654.37 582.405 653.928C582.846 653.926 583.287 653.924 584.23 654.149C585.285 653.891 585.838 653.406 586.39 652.921C586.39 652.921 586.39 652.918 586.736 652.883C589.518 650.871 591.956 648.896 594.393 646.921C594.393 646.921 594.39 646.918 594.75 646.884C597.533 645.868 599.956 644.887 602.378 643.906C602.378 643.906 602.399 643.929 602.409 643.943C594.284 650.524 586.147 657.092 577.691 663.781Z" fill="#D8D8D8"/>
<path d="M176.467 670.247C176.764 669.941 177.23 669.93 178.39 669.951C180.183 670.297 181.284 670.613 182.386 671.308C182.395 672.451 182.403 673.214 182.412 673.976C180.487 672.832 178.562 671.687 176.467 670.247Z" fill="#CFCFCF"/>
<path d="M182.722 673.979C182.403 673.214 182.395 672.451 182.637 671.305C183.056 670.919 183.224 670.918 183.725 670.917C184.5 670.92 184.943 670.921 185.387 671.297C185.39 672.419 185.392 673.168 185.394 673.916C185.207 673.921 185.021 673.926 184.553 673.948C183.859 673.971 183.446 673.976 182.722 673.979Z" fill="#D4D4D4"/>
<path d="M93.3898 590.918C93.3921 591.363 93.3943 591.808 93.0716 592.586C92.3101 592.914 91.8737 592.91 91.4373 592.905C91.0896 592.14 90.7418 591.375 90.358 590.298C90.3219 589.985 90.3564 589.952 90.6926 589.959C91.8158 590.284 92.6028 590.601 93.3898 590.918Z" fill="#CDCECE"/>
<path d="M97.2663 597.617C97.22 597.921 97.0406 597.925 96.5916 597.941C95.7505 597.461 95.1789 596.969 94.4962 595.953C94.3868 595.257 94.3884 595.084 94.39 594.91C95.3045 595.713 96.2189 596.515 97.2663 597.617Z" fill="#CDCECE"/>
<path d="M94.3711 594.615C94.3892 595.084 94.3876 595.257 94.3779 595.691C93.4717 595.125 92.573 594.3 91.5561 593.19C91.8737 592.91 92.3107 592.914 93.075 592.919C93.7191 593.387 94.0352 593.853 94.3711 594.615Z" fill="#D4D4D4"/>
<path d="M135.38 107.916C141.74 102.395 147.635 96.1898 154.552 91.4879C171.509 79.9609 188.433 68.2259 206.293 58.2222C234.183 42.6007 264.337 32.338 295.534 25.5171C307.757 22.8445 320.268 20.9412 332.743 20.0885C352.423 18.7434 372.204 17.7404 391.905 18.195C406.529 18.5324 421.21 20.754 435.66 23.3053C460.158 27.6308 484.061 34.3907 507.075 43.9839C528.832 53.0533 549.679 63.8505 569.04 77.8592C566.458 77.5796 563.924 76.7486 561.083 75.767C554.647 72.3832 548.519 69.15 542.337 65.5706C535.182 61.2346 528.426 56.352 520.909 53.4266C500.245 45.3854 479.709 36.7356 457.655 32.9758C439.271 29.8418 420.94 25.4387 402.421 24.3126C380.587 22.9849 358.513 23.6828 336.661 25.1979C319.776 26.3686 302.892 29.3427 286.342 33.0193C272.028 36.1994 257.823 40.602 244.219 46.0754C225.642 53.5489 207.659 62.5051 189.491 70.9739C187.864 71.732 186.745 73.5764 185.02 74.921C173.515 82.1635 162.368 89.384 151.277 96.6901C150.73 97.0506 150.674 98.1575 150.39 98.9172C150.39 98.9172 150.39 98.9169 150.04 98.9526C147.59 100.964 145.489 102.94 143.06 104.946C141.617 105.956 140.503 106.936 138.989 107.917C137.519 107.916 136.449 107.916 135.38 107.916Z" fill="#972627"/>
<path d="M603.391 105.919C604.143 105.919 604.895 105.918 606.024 105.917C610.728 110.34 615.056 114.764 619.389 119.553C617.905 118.712 616.417 117.506 614.517 115.812C612.867 114.523 611.629 113.721 610.391 112.919C610.224 112.918 610.057 112.918 609.604 112.569C607.341 110.12 605.366 108.02 603.391 105.919Z" fill="#9E2727"/>
<path d="M135.06 107.942C136.45 107.916 137.519 107.917 138.959 108.25C138.351 110.027 137.371 111.473 136.391 112.919C136.069 113.02 135.807 113.207 135.17 113.729C133.619 114.958 132.505 115.938 131.392 116.919C130.948 116.92 130.503 116.921 129.726 116.922C130.556 114.714 131.718 112.506 132.637 110.11C133.176 109.271 133.958 108.619 135.06 107.942Z" fill="#9E2728"/>
<path d="M658.36 163.564C657.084 162.483 655.771 161.049 654.425 159.263C655.702 160.344 657.013 161.778 658.36 163.564Z" fill="#992627"/>
<path d="M610.43 113.275C611.629 113.721 612.867 114.523 614.248 115.622C613.084 115.157 611.777 114.394 610.43 113.275Z" fill="#A32829"/>
<path d="M131.756 116.915C132.505 115.938 133.619 114.957 135.062 113.947C134.301 114.916 133.21 115.913 131.756 116.915Z" fill="#A32829"/>
<path d="M126.689 119.897C126.845 119.279 127.298 118.64 128.073 117.961C128.395 117.921 128.395 118.418 128.395 118.666C127.927 119.235 127.457 119.556 126.689 119.897Z" fill="#9E2728"/>
<path d="M161.035 652.885C162.033 654.357 162.679 655.791 163.36 657.567C158.076 654.091 152.683 650.371 147.468 646.417C144.713 644.329 142.267 641.834 139.538 639.219C143.208 641.244 147.077 643.486 150.818 645.926C154.18 648.12 157.4 650.531 161.035 652.885Z" fill="#DFDFDF"/>
<path d="M574.645 660.809C572.296 661.558 570.207 662.199 567.753 662.877C570.151 660.939 572.914 658.965 576.035 657.329C576.39 658.415 576.388 659.163 576.386 659.91C575.892 660.174 575.398 660.439 574.645 660.809Z" fill="#E4E4E4"/>
<path d="M594.017 646.924C591.956 648.895 589.518 650.87 586.733 652.879C586.906 648.615 590.324 647.832 594.017 646.924Z" fill="#E4E4E4"/>
<path d="M602.379 643.533C599.955 644.887 597.533 645.868 594.752 646.885C596.827 644.944 599.261 642.967 602.045 640.955C602.391 641.667 602.385 642.413 602.379 643.533Z" fill="#E4E4E4"/>
<path d="M576.756 659.909C576.388 659.164 576.389 658.416 576.392 657.294C576.836 656.919 577.279 656.917 578.4 656.884C580.182 656.541 581.286 656.23 582.39 655.918C580.636 657.247 578.881 658.577 576.756 659.909Z" fill="#DEDEDF"/>
<path d="M582.393 655.587C581.286 656.23 580.183 656.542 578.733 656.883C579.495 655.938 580.602 654.962 582.058 653.957C582.402 654.37 582.399 654.813 582.393 655.587Z" fill="#E4E4E4"/>
<path d="M138.339 637.574C137.486 637.442 136.581 636.966 135.54 636.198C136.365 636.347 137.326 636.789 138.339 637.574Z" fill="#DFDFDF"/>
<path d="M586.092 652.939C585.838 653.406 585.285 653.891 584.562 654.147C584.859 653.598 585.326 653.278 586.092 652.939Z" fill="#DEDEDF"/>
<path d="M106.357 605.569C104.727 603.831 103.063 601.745 101.396 599.288C103.035 601.019 104.68 603.12 106.357 605.569Z" fill="#D6D6D6"/>
<path d="M122.731 123.884C123.164 122.941 123.937 121.963 125.05 120.952C124.617 121.895 123.844 122.872 122.731 123.884Z" fill="#9E2728"/>
<path d="M93.3854 590.548C92.6027 590.601 91.8157 590.283 90.7095 589.942C88.9467 587.054 87.5238 584.18 86.0516 581.331C85.2303 579.742 84.327 578.195 83.4258 576.273C86.721 580.671 90.0511 585.424 93.3854 590.548Z" fill="#D4D4D4"/>
<path d="M80.3955 570.285C81.3877 571.34 82.384 572.763 83.384 574.553C82.3917 573.498 81.3957 572.075 80.3955 570.285Z" fill="#D4D4D4"/>
<path d="M514.389 692.913C522.395 688.872 530.368 684.763 538.418 680.81C544.472 677.837 550.624 675.064 557.063 672.062C556.958 672.886 556.78 674.382 556.048 674.738C542.789 681.185 529.462 687.495 515.552 693.768C514.678 693.501 514.49 693.238 514.389 692.913Z" fill="#D6D6D6"/>
<path d="M514.023 692.953C514.49 693.238 514.678 693.501 515.173 693.811C513.663 695.225 512.118 697.043 510.171 697.745C501.234 700.968 492.185 703.88 482.781 706.908C483.686 705.88 484.836 704.49 486.31 703.878C491.798 701.601 497.392 699.58 503.169 697.189C506.813 695.608 510.235 694.301 514.023 692.953Z" fill="#D4D4D4"/>
<path d="M204.64 681.918C202.972 681.584 201.555 681.25 199.765 680.916C198.923 680.597 198.455 680.279 197.533 679.626C194.517 678.166 191.955 677.041 189.393 675.916C188.262 675.336 187.132 674.757 185.698 674.046C185.393 673.167 185.39 672.419 185.387 671.297C192.019 674.357 198.653 677.791 205.34 681.57C205.226 681.916 205.059 681.917 204.64 681.918Z" fill="#DADADA"/>
<path d="M568.725 666.879C569.796 665.909 571.21 664.912 573.004 663.914C571.945 664.893 570.506 665.872 568.725 666.879Z" fill="#D8D8D8"/>
<path d="M234.419 696.214C234.944 696.091 235.501 696.26 236.224 696.676C235.744 696.784 235.097 696.645 234.419 696.214Z" fill="#D4D4D4"/>
<path d="M167.432 660.266C169.929 661.063 172.46 662.216 175.192 663.642C175.393 664.36 175.392 664.805 175.392 665.582C172.751 664.151 170.109 662.385 167.432 660.266Z" fill="#DADADA"/>
<path d="M178.387 667.298C180.029 668.023 181.673 669.122 183.355 670.568C183.224 670.917 183.056 670.919 182.636 670.924C181.283 670.612 180.183 670.297 178.738 669.949C178.391 669.168 178.39 668.42 178.387 667.298Z" fill="#DADADA"/>
<path d="M150.04 98.9526C148.289 100.894 146.188 102.871 143.738 104.882C145.49 102.941 147.59 100.964 150.04 98.9526Z" fill="#9E2728"/>
<path d="M573.34 85.576C571.425 84.812 569.458 83.7066 567.441 82.2598C569.357 83.0237 571.323 84.1291 573.34 85.576Z" fill="#9E2728"/>
<path d="M583.342 91.5801C582.089 91.1426 580.788 90.3679 579.438 89.2559C580.692 89.6934 581.993 90.4681 583.342 91.5801Z" fill="#9E2728"/>
<path d="M598.356 102.577C597.413 102.145 596.436 101.372 595.425 100.259C596.368 100.691 597.345 101.464 598.356 102.577Z" fill="#9E2728"/>
<path d="M590.349 96.5974C589.751 96.4653 589.112 96.0126 588.432 95.2393C589.029 95.3713 589.668 95.824 590.349 96.5974Z" fill="#9E2728"/>
<path d="M586.349 93.5969C585.751 93.465 585.112 93.0124 584.432 92.2393C585.029 92.3712 585.668 92.8237 586.349 93.5969Z" fill="#9E2728"/>
<path d="M578.349 88.5964C577.751 88.4646 577.112 88.0122 576.432 87.2393C577.029 87.3711 577.668 87.8235 578.349 88.5964Z" fill="#9E2728"/>
<path d="M566.349 81.5969C565.751 81.4649 565.112 81.0124 564.432 80.2393C565.029 80.3712 565.668 80.8237 566.349 81.5969Z" fill="#9E2728"/>
<path d="M594.349 99.5969C593.751 99.4649 593.112 99.0124 592.432 98.2393C593.029 98.3712 593.668 98.8238 594.349 99.5969Z" fill="#9E2728"/>
<path d="M204.5 398H0L3.5 409.5L11 433L22.5 482L76 589L143 660.5L237 716.5L355.5 739.5L429.5 732L548 692.5L624.5 638L681 562L730.5 449L743.5 398H539L619.5 451.5L547 522L420 572.5L240.5 527L187 485L204.5 398Z" fill="#EDEEEE"/>
<path d="M539 349.5H743.5L740 338L732.5 314.5L721 265.5L667.5 158.5L600.5 87L506.5 31L388 8L314 15.5L195.5 55L119 109.5L62.5 185.5L13 298.5L0 349.5H204.5L124 296L196.5 225.5L323.5 175L503 220.5L556.5 262.5L539 349.5Z" fill="#AF2B2C"/>
</svg>
