<svg width="17" height="16" viewBox="0 0 17 16" fill="none" xmlns="http://www.w3.org/2000/svg">
<path d="M4.5 2.33301C4.5 2.06634 4.6 1.83301 4.8 1.63301C5 1.43301 5.23333 1.33301 5.5 1.33301L11.5 1.33301C11.7556 1.33301 11.9861 1.43301 12.1917 1.63301C12.3972 1.83301 12.5 2.06634 12.5 2.33301V13.6663C12.5 13.933 12.3972 14.1663 12.1917 14.3663C11.9861 14.5663 11.7556 14.6663 11.5 14.6663H5.5C5.23333 14.6663 5 14.5663 4.8 14.3663C4.6 14.1663 4.5 13.933 4.5 13.6663V2.33301ZM5.5 2.33301L5.5 13.6663H11.5V11.4997H8.5V10.4997H11.5V8.49967H8.5V7.49967H11.5V5.49967H8.5V4.49967H11.5V2.33301L5.5 2.33301ZM8.5 4.49967V5.49967V4.49967ZM8.5 7.49967V8.49967V7.49967ZM8.5 10.4997V11.4997V10.4997Z" fill="#CACACA"/>
</svg>
